<svg xmlns="http://www.w3.org/2000/svg" width="178.245" height="34.549" viewBox="0 0 178.245 34.549">
  <g id="Group_2" data-name="Group 2" transform="translate(-51.777 -238.558)">
    <path id="Path_12" data-name="Path 12" d="M90.244,258.141a6.187,6.187,0,0,0-.817-.619c-.934-.7-2.742-2.1-2.9-2.246-.4-.378-.8-.838-.8-.838s-.789-1.614-1.568-2.953a9.084,9.084,0,0,0-2.1-2.747,8.135,8.135,0,0,0-4.522-1.444l-.006-.005c-.018-.205-.041-.406-.062-.586-.067-.592-.14-1.367-.161-1.711a3.553,3.553,0,0,1,.086-1.044,3.368,3.368,0,0,0,.032-1.108.978.978,0,0,0-.85-.785,1.333,1.333,0,0,1-1.033-.785.893.893,0,0,0-.807-.635c-.312.033-.355-.193-.107-.506v-.409a.971.971,0,1,0-1.9,0v.5c.334.323.42.608.183.635a.678.678,0,0,0-.516.549c-.049.279-.14.516-.2.516h-.323c-.118,0-.32-.27-.452-.581a.914.914,0,0,0-.7-.581c-.247,0-.215-.258.087-.57v-.452a.912.912,0,1,0-1.776,0v.452c.3.312.269.57-.065.57a.53.53,0,0,0-.538.6c.038.334-.053.619-.2.624s-.335.193-.4.409a9.341,9.341,0,0,0-.2,1.194,6.955,6.955,0,0,0,.076,1.668c.03.168.069.373.105.593,0,.006,0,.012.006.019a1.963,1.963,0,0,0-1.529-.279c-1,.318-2.095.256-3,.839-1.691-.613-3.212.664-4.5,1.484-.563.36-.809.709-1.323,1.087-1.39,1.022-1.782,2.643-2.378,4.175a.4.4,0,0,1-.323.075,8.835,8.835,0,0,1-1.033-.3,5.066,5.066,0,0,1-.624-.3c-.205-.116-.381-.281-.592-.387a2.551,2.551,0,0,0-.624-.226c-.163-.034-.087.186-.065.247a1.111,1.111,0,0,0,.194.355,5.716,5.716,0,0,0,.592.538,4.843,4.843,0,0,0,1.377.764l.742.226c.059.02.183-.06.183.064s-.019.116-.108.194c-.7.545.005,4.308.172,5.358a9.306,9.306,0,0,0,1.786,3.691,29.551,29.551,0,0,0,3.034,2.883,7.8,7.8,0,0,1-.441,1.593,9.662,9.662,0,0,0-.462,1.656,1.28,1.28,0,0,1-.5.689c-.184.165-.371.325-.549.5-.061.058-.1.137-.161.194-.171.16-.243.141-.291.409a.587.587,0,0,0,.215.505,4.037,4.037,0,0,0,1.42.925c.454.184.778.408,1.237.226.391-.155.469-.543.656-.915a2.274,2.274,0,0,0,.226-.8c.04-.353.039-.712.086-1.065a5.441,5.441,0,0,1,.269-1.194,5.656,5.656,0,0,1,.4-.743c.117-.211.147-.558.322-.559.315,0,.6.09.915.076.085-.068.127-.133.075-.237s-.088-.1-.194-.1c-.075-.06-.061-.134-.043-.226a.233.233,0,0,0,.054-.226.4.4,0,0,0-.334-.1l-.064-.033a4.148,4.148,0,0,1,.774-1.022,6.126,6.126,0,0,0,.893-1.065c.233-.386.331-.929.527-1.324.16-.32.268-.6.43-.914.108-.207.138-.379.226-.592.077-.187.309-.472.419-.409a21.6,21.6,0,0,0,2.453,1.022c1.152.488,1.312,1.358,1.711,2.442a22.558,22.558,0,0,0,3.013,5.014c.367.737-.136,1.169-.388,1.861-.085.236.873.659,1.044.614l.409-.108c1.039-.274,2.667.125,2.345-1.538.107-.284.7.146.829-.366a2.5,2.5,0,0,0-.14-.893c-.742-1.692-1.493-3.321-1.259-5.218a6.5,6.5,0,0,1,.107-1.14c.686-.086,1.245.108,1.883-.29,1.174-.13,1.913-.478,2.647.817a4.209,4.209,0,0,0,1.345,1.334,9.413,9.413,0,0,1,1.926,2.636c.624.785,1.924,1.948,1.581,3.067.071.5.49.438.9.548,1.146-.152,2.035-2.614,1.141-3.411-.205-.12-.414-.19-.613-.323-.657-1.037-1.7-2.227-1.894-3.442a7.525,7.525,0,0,1-.366-1.377c.017-.418-.206-.8-.193-1.216a4.521,4.521,0,0,1,.279-1.021s.718-1.814.914-2.384a11.288,11.288,0,0,0,.237-2.673c.8.466,1.351.878,1.784,1.121.692.389,1.894,1.218,2.126,1.352a2.741,2.741,0,0,1,1.028,1.239c.077-.352-.319-.921-.507-1.127M62.452,257.7c0-.321.043-.626.043-.947-.169-.083-.707-.082-.839-.183-.274-.21.056-.355-.3-.355-.182,0-.263-.045-.3-.2-.086-.36-1.653.24-1.991.388-.511-.03-.08-.457-.258-.667s-.5-.038-.764-.065c-.034,0,.051.069.032.1a10.469,10.469,0,0,0-.688,4.669,6.282,6.282,0,0,0,1.21,2.8,13.506,13.506,0,0,0,1.523,1.618h.054q.25-.851.505-1.7c.479-1,1.1-1.9,1.571-2.905A7.979,7.979,0,0,0,62.452,257.7Z" transform="translate(0 0)" fill="#003831" fill-rule="evenodd"/>
    <path id="Path_13" data-name="Path 13" d="M505.358,257.4v1.116A4.713,4.713,0,0,1,505.358,257.4Z" transform="translate(-279.083 -11.594)" fill="#003831" fill-rule="evenodd"/>
    <path id="Path_14" data-name="Path 14" d="M505.411,260.26v-.027h.824A5.005,5.005,0,0,1,505.411,260.26Z" transform="translate(-279.136 -13.337)" fill="#003831" fill-rule="evenodd"/>
    <path id="Path_15" data-name="Path 15" d="M505.361,261.407v1.541h-.027C505.353,262.443,505.3,261.868,505.361,261.407Z" transform="translate(-279.086 -14.06)" fill="#003831" fill-rule="evenodd"/>
    <path id="Path_16" data-name="Path 16" d="M505.411,261.427V261.4a2.729,2.729,0,0,1,.611.027Z" transform="translate(-279.136 -14.053)" fill="#003831" fill-rule="evenodd"/>
    <path id="Path_17" data-name="Path 17" d="M190.241,262.459a.543.543,0,0,1,.372,0Z" transform="translate(-85.201 -14.687)" fill="#003831" fill-rule="evenodd"/>
    <path id="Path_18" data-name="Path 18" d="M196.045,266.243c.06.037.01.185.027.266h-.027Z" transform="translate(-88.773 -17.036)" fill="#003831" fill-rule="evenodd"/>
    <path id="Path_19" data-name="Path 19" d="M245.111,280.264c-.045-4.589-.045-9.363,0-13.952Z" transform="translate(-118.944 -17.078)" fill="#003831" fill-rule="evenodd"/>
    <path id="Path_20" data-name="Path 20" d="M228.791,267.141c.044,1.267.044,2.72,0,3.986v-3.986Z" transform="translate(-108.922 -17.588)" fill="#003831" fill-rule="evenodd"/>
    <path id="Path_21" data-name="Path 21" d="M196.114,268.73c.044,4.323.044,8.832,0,13.155Z" transform="translate(-88.815 -18.566)" fill="#003831" fill-rule="evenodd"/>
    <path id="Path_22" data-name="Path 22" d="M367.309,280.544h.717v.027A3.719,3.719,0,0,1,367.309,280.544Z" transform="translate(-194.157 -25.835)" fill="#003831" fill-rule="evenodd"/>
    <path id="Path_23" data-name="Path 23" d="M291.03,288.42c.062,2.25.009,4.615.026,6.909C290.995,293.079,291.048,290.714,291.03,288.42Z" transform="translate(-147.218 -30.682)" fill="#003831" fill-rule="evenodd"/>
    <path id="Path_24" data-name="Path 24" d="M190.1,308.529a5.989,5.989,0,0,1,.027-.9v.9Z" transform="translate(-85.109 -42.499)" fill="#003831" fill-rule="evenodd"/>
    <path id="Path_25" data-name="Path 25" d="M190.1,314.63V314.6H201v.026Z" transform="translate(-85.116 -46.794)" fill="#003831" fill-rule="evenodd"/>
    <path id="Path_26" data-name="Path 26" d="M223.264,314.63V314.6h10.843v.026Z" transform="translate(-105.522 -46.794)" fill="#003831" fill-rule="evenodd"/>
    <path id="Path_27" data-name="Path 27" d="M338.568,314.619a5.411,5.411,0,0,1,1.2,0h-1.2Z" transform="translate(-176.472 -46.782)" fill="#003831" fill-rule="evenodd"/>
    <path id="Path_28" data-name="Path 28" d="M374.424,312.27a1.808,1.808,0,0,1,.293-.292A1.808,1.808,0,0,1,374.424,312.27Z" transform="translate(-198.535 -45.178)" fill="#003831" fill-rule="evenodd"/>
    <path id="Path_29" data-name="Path 29" d="M374.147,303.342a1.788,1.788,0,0,1,.293.293A1.848,1.848,0,0,1,374.147,303.342Z" transform="translate(-198.365 -39.864)" fill="#003831" fill-rule="evenodd"/>
    <path id="Path_30" data-name="Path 30" d="M341.194,282.755a4.318,4.318,0,0,1,.452.452A4.354,4.354,0,0,1,341.194,282.755Z" transform="translate(-178.088 -27.196)" fill="#003831" fill-rule="evenodd"/>
    <path id="Path_31" data-name="Path 31" d="M175.6,279.784a1.473,1.473,0,0,1,.266.266A1.512,1.512,0,0,1,175.6,279.784Z" transform="translate(-76.189 -25.368)" fill="#003831" fill-rule="evenodd"/>
    <path id="Path_32" data-name="Path 32" d="M188.929,280.985a2.931,2.931,0,0,1,.372-.372A2.93,2.93,0,0,1,188.929,280.985Z" transform="translate(-84.394 -25.878)" fill="#003831" fill-rule="evenodd"/>
    <path id="Path_33" data-name="Path 33" d="M212.641,291.692c-.044-2.09-.044-4.367,0-6.457,2.02.018,4.111-.035,6.086.027h-6.086Z" transform="translate(-98.964 -28.719)" fill="#003831" fill-rule="evenodd"/>
    <path id="Path_34" data-name="Path 34" d="M218.783,270.66h-5.474a2.873,2.873,0,0,1-.744-.027,4.626,4.626,0,0,1,0-1.089c0-1.064-.022-2.183.027-3.163v4.252h6.192Z" transform="translate(-98.914 -17.12)" fill="#003831" fill-rule="evenodd"/>
    <path id="Path_35" data-name="Path 35" d="M213.454,263.575a1,1,0,0,1,.372-.372A3.4,3.4,0,0,0,213.454,263.575Z" transform="translate(-99.485 -15.165)" fill="#003831" fill-rule="evenodd"/>
    <path id="Path_36" data-name="Path 36" d="M514.047,256.778a1.456,1.456,0,0,1,.186.372A1.456,1.456,0,0,1,514.047,256.778Z" transform="translate(-284.45 -11.211)" fill="#003831" fill-rule="evenodd"/>
    <path id="Path_37" data-name="Path 37" d="M511.214,266.462a4.9,4.9,0,0,0,.877-.771A2.685,2.685,0,0,1,511.214,266.462Z" transform="translate(-282.707 -16.696)" fill="#003831" fill-rule="evenodd"/>
    <path id="Path_38" data-name="Path 38" d="M501.223,266.036A2.846,2.846,0,0,1,500.16,265,3.962,3.962,0,0,0,501.223,266.036Z" transform="translate(-275.905 -16.271)" fill="#003831" fill-rule="evenodd"/>
    <path id="Path_39" data-name="Path 39" d="M502.419,253.531a6.035,6.035,0,0,0-.877.558A2.511,2.511,0,0,1,502.419,253.531Z" transform="translate(-276.755 -9.213)" fill="#003831" fill-rule="evenodd"/>
    <path id="Path_40" data-name="Path 40" d="M511.655,264.93a.938.938,0,0,1-.372.4A4.514,4.514,0,0,0,511.655,264.93Z" transform="translate(-282.749 -16.228)" fill="#003831" fill-rule="evenodd"/>
    <path id="Path_41" data-name="Path 41" d="M512.421,257.012c-.082-.122-.153-.255-.239-.372A.816.816,0,0,1,512.421,257.012Z" transform="translate(-283.302 -11.126)" fill="#003831" fill-rule="evenodd"/>
    <path id="Path_42" data-name="Path 42" d="M510.837,255.4c-.137-.128-.3-.23-.452-.345A1.05,1.05,0,0,1,510.837,255.4Z" transform="translate(-282.197 -10.149)" fill="#003831" fill-rule="evenodd"/>
    <path id="Path_43" data-name="Path 43" d="M246.063,305.139a2.983,2.983,0,0,0,.345.345A.864.864,0,0,1,246.063,305.139Z" transform="translate(-119.55 -40.97)" fill="#003831" fill-rule="evenodd"/>
    <path id="Path_44" data-name="Path 44" d="M214.092,305.638a.625.625,0,0,1-.292-.292A2.308,2.308,0,0,0,214.092,305.638Z" transform="translate(-99.698 -41.097)" fill="#003831" fill-rule="evenodd"/>
    <path id="Path_45" data-name="Path 45" d="M182.78,264.654a.735.735,0,0,1,.319-.345C183.006,264.438,182.874,264.526,182.78,264.654Z" transform="translate(-80.61 -15.845)" fill="#003831" fill-rule="evenodd"/>
    <path id="Path_46" data-name="Path 46" d="M175.766,279.885c-.07-.027-.09-.105-.16-.133a1.474,1.474,0,0,0-.266-.266c-.037-.078-.123-.108-.159-.186A7.361,7.361,0,0,1,175.766,279.885Z" transform="translate(-75.934 -25.07)" fill="#003831" fill-rule="evenodd"/>
    <path id="Path_47" data-name="Path 47" d="M173.268,276.372a1.068,1.068,0,0,1-.16-.319A1.077,1.077,0,0,1,173.268,276.372Z" transform="translate(-74.659 -23.072)" fill="#003831" fill-rule="evenodd"/>
    <path id="Path_48" data-name="Path 48" d="M176.52,258.851c-.228.232-.486.435-.718.664A4.557,4.557,0,0,1,176.52,258.851Z" transform="translate(-76.317 -12.487)" fill="#003831" fill-rule="evenodd"/>
    <path id="Path_49" data-name="Path 49" d="M509.349,265.345a1.436,1.436,0,0,0,.611,0l.027.053C509.786,265.369,509.464,265.461,509.349,265.345Z" transform="translate(-281.559 -16.483)" fill="#003831" fill-rule="evenodd"/>
    <path id="Path_50" data-name="Path 50" d="M509.418,256.571a.62.62,0,0,1,.345.266A2.244,2.244,0,0,0,509.418,256.571Z" transform="translate(-281.602 -11.084)" fill="#003831" fill-rule="evenodd"/>
    <path id="Path_51" data-name="Path 51" d="M509.28,260.663a1.989,1.989,0,0,0,.4-.292A.7.7,0,0,1,509.28,260.663Z" transform="translate(-281.517 -13.422)" fill="#003831" fill-rule="evenodd"/>
    <path id="Path_52" data-name="Path 52" d="M509,262.374a1.744,1.744,0,0,1,.186.292A.662.662,0,0,1,509,262.374Z" transform="translate(-281.347 -14.655)" fill="#003831" fill-rule="evenodd"/>
    <path id="Path_53" data-name="Path 53" d="M509.764,263.549a1.715,1.715,0,0,1,.186.292A.666.666,0,0,1,509.764,263.549Z" transform="translate(-281.814 -15.378)" fill="#003831" fill-rule="evenodd"/>
    <path id="Path_54" data-name="Path 54" d="M385.962,269.942a6.414,6.414,0,0,1,.85-.8C386.541,269.422,386.238,269.669,385.962,269.942Z" transform="translate(-205.635 -18.821)" fill="#003831" fill-rule="evenodd"/>
    <path id="Path_55" data-name="Path 55" d="M413.8,310.139c.249-.247.521-.471.771-.717A5.083,5.083,0,0,1,413.8,310.139Z" transform="translate(-222.766 -43.605)" fill="#003831" fill-rule="evenodd"/>
    <path id="Path_56" data-name="Path 56" d="M409.743,268.831c-.1-.079-.2-.156-.292-.239A.681.681,0,0,1,409.743,268.831Z" transform="translate(-220.089 -18.481)" fill="#003831" fill-rule="evenodd"/>
    <path id="Path_57" data-name="Path 57" d="M411.3,270.208c-.134-.123-.273-.241-.4-.372A1.591,1.591,0,0,1,411.3,270.208Z" transform="translate(-220.981 -19.246)" fill="#003831" fill-rule="evenodd"/>
    <path id="Path_58" data-name="Path 58" d="M419.191,265a1.476,1.476,0,0,1,.266.266A1.54,1.54,0,0,1,419.191,265Z" transform="translate(-226.082 -16.271)" fill="#003831" fill-rule="evenodd"/>
    <path id="Path_59" data-name="Path 59" d="M419.123,271.573q.223-.2.425-.425A1.349,1.349,0,0,1,419.123,271.573Z" transform="translate(-226.04 -20.054)" fill="#003831" fill-rule="evenodd"/>
    <path id="Path_60" data-name="Path 60" d="M416.429,285.172a2.057,2.057,0,0,1,.239.319A.99.99,0,0,1,416.429,285.172Z" transform="translate(-224.382 -28.683)" fill="#003831" fill-rule="evenodd"/>
    <path id="Path_61" data-name="Path 61" d="M418.342,305.139a1.454,1.454,0,0,1-.187.372A1.435,1.435,0,0,1,418.342,305.139Z" transform="translate(-225.444 -40.97)" fill="#003831" fill-rule="evenodd"/>
    <path id="Path_62" data-name="Path 62" d="M382.3,275.926a1.878,1.878,0,0,1,.213-.425A1.926,1.926,0,0,1,382.3,275.926Z" transform="translate(-203.382 -22.732)" fill="#003831" fill-rule="evenodd"/>
    <path id="Path_63" data-name="Path 63" d="M389.9,267.492a2,2,0,0,1,.319-.213A.994.994,0,0,1,389.9,267.492Z" transform="translate(-208.058 -17.673)" fill="#003831" fill-rule="evenodd"/>
    <path id="Path_64" data-name="Path 64" d="M358.163,273.98a1.308,1.308,0,0,1-.319-.345C357.962,273.738,358.056,273.867,358.163,273.98Z" transform="translate(-188.333 -21.584)" fill="#003831" fill-rule="evenodd"/>
    <path id="Path_65" data-name="Path 65" d="M367.516,266.52a2.152,2.152,0,0,1,.319.319A2.136,2.136,0,0,1,367.516,266.52Z" transform="translate(-194.285 -17.206)" fill="#003831" fill-rule="evenodd"/>
    <path id="Path_66" data-name="Path 66" d="M367.516,274.369a2.12,2.12,0,0,1,.319-.319A2.171,2.171,0,0,1,367.516,274.369Z" transform="translate(-194.285 -21.839)" fill="#003831" fill-rule="evenodd"/>
    <path id="Path_67" data-name="Path 67" d="M259.4,283.9a1.851,1.851,0,0,1,.4-.372C259.68,283.662,259.53,283.769,259.4,283.9Z" transform="translate(-127.757 -27.669)" fill="#003831" fill-rule="evenodd"/>
    <path id="Path_68" data-name="Path 68" d="M259.078,291.252a1.418,1.418,0,0,1-.372-.346c.135.1.219.242.372.319Z" transform="translate(-127.33 -32.211)" fill="#003831" fill-rule="evenodd"/>
    <path id="Path_69" data-name="Path 69" d="M257.393,311.149a3.263,3.263,0,0,1,.345.372A1.647,1.647,0,0,1,257.393,311.149Z" transform="translate(-126.522 -44.668)" fill="#003831" fill-rule="evenodd"/>
    <path id="Path_70" data-name="Path 70" d="M288.62,283.445a2.178,2.178,0,0,1,.319.319A2.159,2.159,0,0,1,288.62,283.445Z" transform="translate(-145.737 -27.62)" fill="#003831" fill-rule="evenodd"/>
    <path id="Path_71" data-name="Path 71" d="M457.4,283.377a2.456,2.456,0,0,1,.452.478C457.7,283.7,457.543,283.54,457.4,283.377Z" transform="translate(-249.591 -27.579)" fill="#003831" fill-rule="evenodd"/>
    <path id="Path_72" data-name="Path 72" d="M296.8,309.161a.774.774,0,0,1-.24-.292A2.384,2.384,0,0,1,296.8,309.161Z" transform="translate(-150.625 -43.265)" fill="#003831" fill-rule="evenodd"/>
    <path id="Path_73" data-name="Path 73" d="M297.766,310.851c.046-.087.153-.112.212-.186-.049-.146-.193-.2-.239-.346.1.1.175.215.266.319C297.974,310.758,297.853,310.788,297.766,310.851Z" transform="translate(-151.348 -44.157)" fill="#003831" fill-rule="evenodd"/>
    <path id="Path_74" data-name="Path 74" d="M276.115,313.035a1.072,1.072,0,0,1,.319-.159A1.059,1.059,0,0,1,276.115,313.035Z" transform="translate(-138.042 -45.73)" fill="#003831" fill-rule="evenodd"/>
    <path id="Path_75" data-name="Path 75" d="M260.528,313.615a1.447,1.447,0,0,1-.372-.186A1.447,1.447,0,0,1,260.528,313.615Z" transform="translate(-128.222 -46.071)" fill="#003831" fill-rule="evenodd"/>
    <path id="Path_76" data-name="Path 76" d="M257.531,301.562a1.69,1.69,0,0,1,.239-.292c-.043.125-.156.18-.213.292Z" transform="translate(-126.607 -38.589)" fill="#003831" fill-rule="evenodd"/>
    <path id="Path_77" data-name="Path 77" d="M276.4,286.937a2.6,2.6,0,0,0-.425-.452A1.1,1.1,0,0,1,276.4,286.937Z" transform="translate(-137.958 -29.491)" fill="#003831" fill-rule="evenodd"/>
    <path id="Path_78" data-name="Path 78" d="M268.93,286.4a.974.974,0,0,1,.425-.4A2.351,2.351,0,0,0,268.93,286.4Z" transform="translate(-133.621 -29.194)" fill="#003831" fill-rule="evenodd"/>
    <path id="Path_79" data-name="Path 79" d="M266.857,291.157q.168-.164.346-.319A.867.867,0,0,1,266.857,291.157Z" transform="translate(-132.346 -32.17)" fill="#003831" fill-rule="evenodd"/>
    <path id="Path_80" data-name="Path 80" d="M367.516,303.125a1.488,1.488,0,0,1,.265-.266A1.522,1.522,0,0,1,367.516,303.125Z" transform="translate(-194.285 -39.567)" fill="#003831" fill-rule="evenodd"/>
    <path id="Path_81" data-name="Path 81" d="M329.158,288.084a2.391,2.391,0,0,0-.4-.425A.982.982,0,0,1,329.158,288.084Z" transform="translate(-170.436 -30.213)" fill="#003831" fill-rule="evenodd"/>
    <path id="Path_82" data-name="Path 82" d="M320.261,288.723a.788.788,0,0,1,.345-.372A3.013,3.013,0,0,0,320.261,288.723Z" transform="translate(-165.207 -30.639)" fill="#003831" fill-rule="evenodd"/>
    <path id="Path_83" data-name="Path 83" d="M454.909,281.857a1.059,1.059,0,0,1,.319.159A1.059,1.059,0,0,1,454.909,281.857Z" transform="translate(-248.06 -26.643)" fill="#003831" fill-rule="evenodd"/>
    <path id="Path_84" data-name="Path 84" d="M465.649,309.092a.782.782,0,0,1-.239-.292A2.378,2.378,0,0,1,465.649,309.092Z" transform="translate(-254.522 -43.222)" fill="#003831" fill-rule="evenodd"/>
    <path id="Path_85" data-name="Path 85" d="M466.824,310.543a.774.774,0,0,1-.239-.292A2.315,2.315,0,0,1,466.824,310.543Z" transform="translate(-255.245 -44.115)" fill="#003831" fill-rule="evenodd"/>
    <path id="Path_86" data-name="Path 86" d="M427.386,312.244a1.692,1.692,0,0,1-.319-.266c.135.051.2.177.319.239Z" transform="translate(-230.928 -45.178)" fill="#003831" fill-rule="evenodd"/>
    <path id="Path_87" data-name="Path 87" d="M426.186,310.968a1.781,1.781,0,0,1-.292-.372A1.781,1.781,0,0,1,426.186,310.968Z" transform="translate(-230.206 -44.327)" fill="#003831" fill-rule="evenodd"/>
    <path id="Path_88" data-name="Path 88" d="M427.871,300.027a1.173,1.173,0,0,1-.319.265A1.632,1.632,0,0,1,427.871,300.027Z" transform="translate(-231.227 -37.824)" fill="#003831" fill-rule="evenodd"/>
    <path id="Path_89" data-name="Path 89" d="M428.656,299.478a2.042,2.042,0,0,1,.319-.212A.974.974,0,0,1,428.656,299.478Z" transform="translate(-231.906 -37.356)" fill="#003831" fill-rule="evenodd"/>
    <path id="Path_90" data-name="Path 90" d="M437.776,286.639a.518.518,0,0,1,.266-.292C437.966,286.457,437.853,286.53,437.776,286.639Z" transform="translate(-237.518 -29.406)" fill="#003831" fill-rule="evenodd"/>
    <path id="Path_91" data-name="Path 91" d="M427.732,291.045a1.239,1.239,0,0,1-.319-.346Q427.577,290.867,427.732,291.045Z" transform="translate(-231.141 -32.084)" fill="#003831" fill-rule="evenodd"/>
    <path id="Path_92" data-name="Path 92" d="M363.785,297.969a.9.9,0,0,1,.345-.292C364.015,297.774,363.9,297.871,363.785,297.969Z" transform="translate(-191.989 -36.378)" fill="#003831" fill-rule="evenodd"/>
    <path id="Path_93" data-name="Path 93" d="M402.4,307.153a4.069,4.069,0,0,0,.425-.425A1.306,1.306,0,0,1,402.4,307.153Z" transform="translate(-215.752 -41.947)" fill="#003831" fill-rule="evenodd"/>
    <path id="Path_94" data-name="Path 94" d="M403.456,286.847a2.761,2.761,0,0,0-.292-.293A.627.627,0,0,1,403.456,286.847Z" transform="translate(-216.22 -29.534)" fill="#003831" fill-rule="evenodd"/>
    <path id="Path_95" data-name="Path 95" d="M506.517,254.169a.7.7,0,0,1,.425,0Z" transform="translate(-279.816 -9.586)" fill="#003831" fill-rule="evenodd"/>
    <path id="Path_96" data-name="Path 96" d="M505.59,256.3a.907.907,0,0,1,.452.106,2.246,2.246,0,0,1,.345.266,1.168,1.168,0,0,1,0,1.2,1.989,1.989,0,0,1-.4.292.832.832,0,0,1-.345.08,4.264,4.264,0,0,0,.239.4.662.662,0,0,0,.186.292c.048.04.062.115.107.16a.665.665,0,0,0,.186.292c.091.13.175.268.266.4a1.436,1.436,0,0,1-.611,0c-.286-.511-.591-1-.9-1.488a2.729,2.729,0,0,0-.611-.027c-.062.461-.009,1.036-.027,1.541-.07-.069-.4.1-.505-.027-.085-.1,0-.657,0-.851V256.3Zm-1.089,1.541a5,5,0,0,0,.824-.027c.826.173.913-1.119.133-1.063a6.72,6.72,0,0,0-.957-.027A4.717,4.717,0,0,0,504.5,257.836Z" transform="translate(-278.225 -10.914)" fill="#003831" fill-rule="evenodd"/>
    <path id="Path_97" data-name="Path 97" d="M405.582,267.3a.542.542,0,0,1,.372,0Z" transform="translate(-217.708 -17.663)" fill="#003831" fill-rule="evenodd"/>
    <path id="Path_98" data-name="Path 98" d="M181.581,269.48c-.108.045-.03-.324-.053-.452.017-.16-.035-.39.027-.505A6.719,6.719,0,0,0,181.581,269.48Z" transform="translate(-79.836 -18.438)" fill="#003831" fill-rule="evenodd"/>
    <path id="Path_99" data-name="Path 99" d="M267.983,289.594c-.016.081.034.229-.026.266C267.973,289.779,267.923,289.631,267.983,289.594Z" transform="translate(-133.02 -31.404)" fill="#003831" fill-rule="evenodd"/>
    <path id="Path_100" data-name="Path 100" d="M406.2,294.5c.061.08.01.274.026.4C406.162,294.817,406.214,294.624,406.2,294.5Z" transform="translate(-218.083 -34.422)" fill="#003831" fill-rule="evenodd"/>
    <path id="Path_101" data-name="Path 101" d="M406.223,296.3c-.017.142.035.354-.026.452C406.214,296.605,406.162,296.393,406.223,296.3Z" transform="translate(-218.083 -35.527)" fill="#003831" fill-rule="evenodd"/>
    <path id="Path_102" data-name="Path 102" d="M228.473,285.311c-.018,2.277.035,4.624-.027,6.856v-6.856Z" transform="translate(-108.71 -28.769)" fill="#003831" fill-rule="evenodd"/>
    <path id="Path_103" data-name="Path 103" d="M272.937,308.317h.319A.4.4,0,0,1,272.937,308.317Z" transform="translate(-136.087 -42.925)" fill="#003831" fill-rule="evenodd"/>
    <path id="Path_104" data-name="Path 104" d="M441.852,308.317h.319A.4.4,0,0,1,441.852,308.317Z" transform="translate(-240.026 -42.925)" fill="#003831" fill-rule="evenodd"/>
    <path id="Path_105" data-name="Path 105" d="M355.287,309.215h.293v.026C355.49,309.224,355.332,309.275,355.287,309.215Z" transform="translate(-186.76 -43.478)" fill="#003831" fill-rule="evenodd"/>
    <path id="Path_106" data-name="Path 106" d="M356.048,309.215h1.169a10.153,10.153,0,0,1-1.169.026Z" transform="translate(-187.228 -43.478)" fill="#003831" fill-rule="evenodd"/>
    <path id="Path_107" data-name="Path 107" d="M341.635,314.665a2.977,2.977,0,0,1,.638.027,3.212,3.212,0,0,1-.665-.027Z" transform="translate(-178.342 -46.829)" fill="#003831" fill-rule="evenodd"/>
    <path id="Path_108" data-name="Path 108" d="M500.846,253.148a2.566,2.566,0,0,1,1.089-.239h.425a2.876,2.876,0,0,1,1.355.425,4.235,4.235,0,0,1,.984.93c.023.047.064.077.08.133a1.447,1.447,0,0,0,.186.372,3.918,3.918,0,0,1,.239.877v.611a3.21,3.21,0,0,1-.638,1.568,4.9,4.9,0,0,1-.877.771,3.164,3.164,0,0,1-1.408.425h-.372a3.237,3.237,0,0,1-1.409-.425,3.962,3.962,0,0,1-1.063-1.036,3.073,3.073,0,0,1-.452-1.435v-.345a2.973,2.973,0,0,1,.983-2.073A6.035,6.035,0,0,1,500.846,253.148Zm1.037.266a2.329,2.329,0,0,0-1.063.319,1.621,1.621,0,0,0-.691.611c-1.183,1.449-.286,4.049,1.674,4.146a1.314,1.314,0,0,0,.584,0,2.337,2.337,0,0,0,1.329-.558.938.938,0,0,0,.372-.4,2.806,2.806,0,0,0,.213-2.817.816.816,0,0,0-.239-.372c-.069-.1-.172-.165-.239-.266a1.05,1.05,0,0,0-.452-.345,2.329,2.329,0,0,0-1.063-.319A.7.7,0,0,0,501.883,253.414Z" transform="translate(-275.182 -8.83)" fill="#003831" fill-rule="evenodd"/>
    <path id="Path_109" data-name="Path 109" d="M178.428,254.775h11.347v2.6a3.826,3.826,0,0,0-1.541.638,1.006,1.006,0,0,0-.372.372,1.522,1.522,0,0,0-.292.85c-.048.98-.027,2.1-.027,3.163a4.624,4.624,0,0,0,0,1.089,2.874,2.874,0,0,0,.744.027h5.474c.044-1.267.044-2.72,0-3.986.061-1.487-.923-1.929-2.126-2.153v-2.6h10.87V257.3c-1.446.007-2.422.483-2.445,1.913-.045,4.589-.045,9.363,0,13.952a1.568,1.568,0,0,0,.345.984.864.864,0,0,0,.345.345,3.445,3.445,0,0,0,1.727.638v2.658H191.636v-2.711c1.051-.18,1.836-.627,1.993-1.7.062-2.232.009-4.579.027-6.856-1.975-.062-4.066-.009-6.086-.027-.044,2.091-.044,4.367,0,6.457a2.057,2.057,0,0,0,.425,1.276.625.625,0,0,0,.292.292,2.89,2.89,0,0,0,1.488.558v2.711h-10.9v-.559a10.928,10.928,0,0,0,.027-1.222v-.9a3.253,3.253,0,0,0,1.648-.5.746.746,0,0,0,.319-.319,1.676,1.676,0,0,0,.319-.983c.044-4.323.044-8.832,0-13.155v-.691c-.017-.081.034-.229-.027-.266a1.8,1.8,0,0,0-1.86-1.435.544.544,0,0,0-.372,0h-.239c-.16.018-.389-.035-.505.027a2.793,2.793,0,0,0-1.807.664.735.735,0,0,0-.319.345,2.309,2.309,0,0,0-.452,1.276c-.062.115-.009.345-.027.505.023.127-.055.5.053.452a3.182,3.182,0,0,1,1.94-.611c1.843.169,2.457,3.019,1.222,4.305a2.931,2.931,0,0,0-.372.372,3.174,3.174,0,0,1-1.887.744h-.479a4.1,4.1,0,0,1-2.338-1.037,7.361,7.361,0,0,0-.585-.585,4.7,4.7,0,0,1-.638-.93,1.077,1.077,0,0,0-.16-.319,4.846,4.846,0,0,1-.479-1.86v-.452a5.648,5.648,0,0,1,1.515-3.641c.232-.229.489-.432.718-.664A7.465,7.465,0,0,1,178.428,254.775Z" transform="translate(-73.893 -9.979)" fill="#003831" fill-rule="evenodd"/>
    <path id="Path_110" data-name="Path 110" d="M390.937,262.167h.531a6.968,6.968,0,0,1,3.959,1.09,1.542,1.542,0,0,0,.266.266,1.794,1.794,0,0,1,.133,2.1q-.2.223-.425.425a1.707,1.707,0,0,1-.957.319h-.319a2.8,2.8,0,0,1-1.488-.877,1.592,1.592,0,0,0-.4-.372c-.1-.064-.161-.175-.265-.239a.681.681,0,0,0-.292-.239,2.143,2.143,0,0,0-1.116-.479.542.542,0,0,0-.372,0,3.884,3.884,0,0,0-2.471.771,2.412,2.412,0,0,0-.717.664,5.026,5.026,0,0,0-1.2,3.88,17.5,17.5,0,0,1,3.375-.771h.4a6.055,6.055,0,0,1,4.784,2.312.99.99,0,0,0,.239.319,7.087,7.087,0,0,1,1.276,3.72v.983a6.91,6.91,0,0,1-.664,2.658,1.435,1.435,0,0,0-.187.372,6.026,6.026,0,0,1-.9,1.276c-.25.247-.522.471-.771.717a7.339,7.339,0,0,1-4.013,1.541h-.452a14.621,14.621,0,0,1-4.3-1.169c-.118.272-.162.618-.266.9h-3.747V270.458a6.682,6.682,0,0,1,.664-2.737,1.924,1.924,0,0,0,.213-.425,7.561,7.561,0,0,1,1.2-1.648c.276-.273.579-.52.85-.8a6.3,6.3,0,0,1,.664-.505.993.993,0,0,0,.319-.213A12.538,12.538,0,0,1,390.937,262.167Zm-1.674,9.381c-.794-.831-2.839-.575-3.508.186-.044,2.569-.044,5.324,0,7.893.682.617,2.491.842,3.215.106a1.306,1.306,0,0,0,.425-.425,6.1,6.1,0,0,0,1.036-3.561c.061-.1.009-.31.026-.452V275c-.017-.124.035-.318-.026-.4a4.562,4.562,0,0,0-.877-2.763A.627.627,0,0,0,389.263,271.548Z" transform="translate(-202.319 -14.527)" fill="#003831" fill-rule="evenodd"/>
    <path id="Path_111" data-name="Path 111" d="M356.876,267.079c.1-1.735,2.778-2.554,4.093-1.408a2.133,2.133,0,0,0,.319.318,2.035,2.035,0,0,1,0,2.578,2.119,2.119,0,0,0-.319.319,2.138,2.138,0,0,1-1.356.531h-.265a2.742,2.742,0,0,1-1.781-.664c-.107-.114-.2-.242-.319-.345a1.767,1.767,0,0,1-.372-.983Z" transform="translate(-187.737 -16.357)" fill="#003831" fill-rule="evenodd"/>
    <path id="Path_112" data-name="Path 112" d="M471.7,267.11a15.57,15.57,0,0,0,5.395-1.143h1.249c.018,4.916-.036,9.9.026,14.775a2,2,0,0,0,1.781,2.02v1.914H471.7c.136-.4-.2-1.608.053-1.94l.027-.027c1.012-.131,1.531-.754,1.488-1.94.044-3.366.044-6.918,0-10.284a1.233,1.233,0,0,0-.239-.771.657.657,0,0,0-.346-.319,2.2,2.2,0,0,0-.85-.292l-.053-.027c-.148-.073-.08-.309-.08-.452C471.695,268.165,471.7,267.586,471.7,267.11Z" transform="translate(-258.362 -16.866)" fill="#003831" fill-rule="evenodd"/>
    <path id="Path_113" data-name="Path 113" d="M262.867,279.853h.8a8.138,8.138,0,0,1,4.89,1.382,2.159,2.159,0,0,0,.319.319,2.529,2.529,0,0,1,.611,1.594c.018,2.294-.036,4.659.026,6.909a.912.912,0,0,0,.08.425.475.475,0,0,0,.266.319,1.176,1.176,0,0,0,1.382-.186c.179.077.241.273.372.4a.774.774,0,0,0,.24.292c.068.091.144.175.212.265.046.149.19.2.239.346-.059.073-.167.1-.212.186a6.587,6.587,0,0,1-3.375,1.409H268.1a5.231,5.231,0,0,1-3.215-1.461c-.3.146-.51.375-.824.5a1.073,1.073,0,0,0-.319.159,8.32,8.32,0,0,1-2.977.8h-.425a6.422,6.422,0,0,1-2.365-.558,1.461,1.461,0,0,0-.372-.186,3.533,3.533,0,0,1-.717-.505,3.261,3.261,0,0,0-.345-.372,2.358,2.358,0,0,1-.532-1.356V290a2.936,2.936,0,0,1,.585-1.621h.027c.057-.112.169-.167.213-.292,1.6-1.674,4.488-2.067,7.441-2.392a5,5,0,0,0,.053-1.249,10.06,10.06,0,0,0-.027-1.222,1.785,1.785,0,0,0-.611-.824,2.029,2.029,0,0,0-2.285-.186.974.974,0,0,0-.425.4,1.748,1.748,0,0,0-.345.983c-.06.037-.01.185-.027.266.006.1-.057.138-.08.213q-.178.155-.346.319a3.38,3.38,0,0,1-1.382.425h-.266a2.185,2.185,0,0,1-1.116-.372v-.027c-.153-.077-.237-.224-.372-.319a2.05,2.05,0,0,1,.266-2.471c.13-.127.28-.233.4-.372A9.491,9.491,0,0,1,262.867,279.853Zm.452,7.68c-1.222.108-2.671,1.439-1.967,2.658a.743.743,0,0,0,.319.319,1.663,1.663,0,0,0,.85.292.4.4,0,0,0,.319,0,3.444,3.444,0,0,0,1.462-.611c.062-.833.009-1.781.027-2.658A3.894,3.894,0,0,0,263.319,287.533Z" transform="translate(-125.672 -25.41)" fill="#003831" fill-rule="evenodd"/>
    <path id="Path_114" data-name="Path 114" d="M309.272,281.712a12.518,12.518,0,0,1,3.907-1.754,5.537,5.537,0,0,1,4.464,1.01,4.357,4.357,0,0,0,.452.452,2.586,2.586,0,0,1,.638,1.648c.018,2.046-.035,4.164.027,6.165.154,1.741,2.014,1.777,3.8,1.887.054.061.221.009.319.027h.186c.045.06.2.009.293.026a10.159,10.159,0,0,0,1.169-.026,5.538,5.538,0,0,0,2.312-.4c.639-.347.43-1.283.93-1.78a1.523,1.523,0,0,0,.265-.266,1.944,1.944,0,0,1,2.285.186,1.846,1.846,0,0,0,.293.293,2.374,2.374,0,0,1,.107,3.029,1.813,1.813,0,0,0-.293.292,7.086,7.086,0,0,1-4.146,1.3h-.718c-.1-.062-.309-.009-.452-.027-2.316-.067-4.326-.44-6.644-.505a2.977,2.977,0,0,0-.638-.027,5.411,5.411,0,0,0-1.2,0h-4.146v-1.966a1.52,1.52,0,0,0,.558-.266.756.756,0,0,0,.346-.372,1.151,1.151,0,0,0,.186-.558c.044-1.869.044-3.924,0-5.793a1.943,1.943,0,0,0-.319-1.01.982.982,0,0,0-.4-.425,2.528,2.528,0,0,0-2.923.266.788.788,0,0,0-.345.372c-.011.069-.079.08-.08.16-.044,2.117-.044,4.42,0,6.537.128.615.65.837,1.169,1.063v1.967h-7.76v-1.94a2.377,2.377,0,0,0,1.09-.4.626.626,0,0,0,.292-.292,1.053,1.053,0,0,0,.212-.585c.045-1.816.045-3.818,0-5.634-.026-.94-.587-1.344-1.568-1.329v-1.887a20.4,20.4,0,0,0,5.023-1.063h1.275C309.263,280.622,309.21,281.224,309.272,281.712Z" transform="translate(-154.536 -25.409)" fill="#003831" fill-rule="evenodd"/>
    <path id="Path_115" data-name="Path 115" d="M431.73,279.853h.8a10.153,10.153,0,0,1,3.88.771,1.068,1.068,0,0,0,.319.159,3.1,3.1,0,0,1,.638.425c.146.163.3.321.452.478a2.44,2.44,0,0,1,.505,1.435c.018,2.338-.036,4.748.026,7.042a.871.871,0,0,0,1.037.8c.313-.04.519-.284.771-.372a2.431,2.431,0,0,0,.292.4.782.782,0,0,0,.239.292c.069.091.144.175.213.266a.775.775,0,0,0,.239.292l.053.053a6.535,6.535,0,0,1-3.747,1.621h-.505a5.372,5.372,0,0,1-3.215-1.461,8.006,8.006,0,0,1-4.119,1.461h-.425a5.857,5.857,0,0,1-3.162-1.036v-.027c-.124-.062-.184-.189-.319-.239a.541.541,0,0,1-.159-.159,1.793,1.793,0,0,0-.292-.372,3.083,3.083,0,0,1,.638-3.8,1.175,1.175,0,0,0,.318-.265.46.46,0,0,1,.106-.08.974.974,0,0,0,.319-.212c1.686-1.034,4.069-1.37,6.538-1.621a23.039,23.039,0,0,0,0-2.471,2.058,2.058,0,0,0-3.083-.877.518.518,0,0,0-.266.292,2.279,2.279,0,0,0-.292.611c-.062.24,0,.517-.08.744-.194.551-1.146.7-1.807.824h-.266a2.137,2.137,0,0,1-1.222-.452q-.154-.178-.319-.346a1.32,1.32,0,0,1-.239-.664v-.452c.344-1.983,2.406-2.593,4.464-2.9C430.6,279.933,431.148,279.886,431.73,279.853Zm.425,7.68A2.469,2.469,0,0,0,430,289.367c-.083.782.481,1.355,1.382,1.435a.4.4,0,0,0,.319,0,2.918,2.918,0,0,0,1.462-.665v-.08a24.546,24.546,0,0,0,0-2.551A7.561,7.561,0,0,0,432.155,287.533Z" transform="translate(-229.558 -25.41)" fill="#003831" fill-rule="evenodd"/>
    <path id="Path_116" data-name="Path 116" d="M357.338,280.544h.4a3.719,3.719,0,0,0,.717.027V286.5a3.386,3.386,0,0,0-1.728.638.9.9,0,0,0-.345.292,3.058,3.058,0,0,0-.877,1.515,5.041,5.041,0,0,1-1.515.266h-.345c-.083-.023-.275.062-.239-.08-.018-1.435.035-2.941-.027-4.332a1.147,1.147,0,0,0-.213-.665.98.98,0,0,0-.425-.4,2.485,2.485,0,0,0-.957-.319c-.062-.585-.009-1.284-.027-1.913A23.989,23.989,0,0,0,357.338,280.544Z" transform="translate(-184.585 -25.835)" fill="#003831" fill-rule="evenodd"/>
    <path id="Path_117" data-name="Path 117" d="M188.307,262.532c.116-.062.345-.009.505-.027C188.7,262.567,188.467,262.515,188.307,262.532Z" transform="translate(-84.011 -14.733)" fill="#003831" fill-rule="evenodd"/>
    <path id="Path_118" data-name="Path 118" d="M190.13,309.975a10.928,10.928,0,0,1-.027,1.222v-1.222Z" transform="translate(-85.116 -43.945)" fill="#003831" fill-rule="evenodd"/>
    <path id="Path_119" data-name="Path 119" d="M360.607,316.047c.142.017.354-.035.452.027C360.917,316.056,360.7,316.109,360.607,316.047Z" transform="translate(-190.033 -47.679)" fill="#003831" fill-rule="evenodd"/>
  </g>
</svg>
