<svg xmlns="http://www.w3.org/2000/svg" width="229.138" height="47.879" viewBox="0 0 229.138 47.879">
  <g id="Group_9" data-name="Group 9" transform="translate(956.898 -105.583)">
    <path id="Path_120" data-name="Path 120" d="M-903.022,115.836c.309.149.684.15.913.652a7.229,7.229,0,0,0,1.246,1.607,28.94,28.94,0,0,0,9.152,6.739.475.475,0,0,0,.485-.033,53.015,53.015,0,0,0,14.62-11.032c1.381-1.47,2.638-3.043,3.925-4.592a14.655,14.655,0,0,1,2.287-2.253,5.2,5.2,0,0,1,6.574-.322,36.481,36.481,0,0,1,3.371,2.565c2.462,1.993,4.909,4,7.362,6.008a3.177,3.177,0,0,0,3.413.248,4.03,4.03,0,0,1,4.685.3,13.14,13.14,0,0,1,2.15,2.316,6.684,6.684,0,0,0,6.256,2.731,11.626,11.626,0,0,0,2.913-.733,26.273,26.273,0,0,0,4.237-2.158c.581-.351.735-.292.926.361a8.825,8.825,0,0,0,3.841,4.97,21.279,21.279,0,0,0,6.622,2.711c7.709,1.941,15.428,3.843,23.142,5.764a4.524,4.524,0,0,1,1.115.322c.187.1.3-.05.436-.116a58.138,58.138,0,0,0,10.826-6.953c1.994-1.6,3.824-3.375,5.7-5.1a4.056,4.056,0,0,1,2.95-1.3,5.089,5.089,0,0,1,2.2.709,27.514,27.514,0,0,1,5.264,3.913c2.121,1.921,4.049,4.042,6.165,5.967a127.071,127.071,0,0,0,15.09,11.594,175.1,175.1,0,0,0,16.907,9.885c.186.1.5.121.483.407s-.3.356-.517.458a1.255,1.255,0,0,1-1.2.007,169.034,169.034,0,0,1-24.589-15.292,158.174,158.174,0,0,1-13.658-11.911c-1.152-1.1-2.221-2.284-3.462-3.289a8.327,8.327,0,0,0-1.795-1.157,2.5,2.5,0,0,0-2.379.1,8.714,8.714,0,0,0-2.13,1.69c-5.252,5.672-11.747,9.477-18.766,12.5a24.459,24.459,0,0,0-3.8,1.936,6.981,6.981,0,0,0-2.827,3.2c-.941,2.368-2.82,3.2-5.175,3.333-1.331.076-2.665.109-3.993.225a10.273,10.273,0,0,0-4.55,1.708c-2.011,1.258-3.841,2.774-5.828,4.067-2.312,1.5-4.606,3.034-6.9,4.561a1.589,1.589,0,0,1-1.048.314c-.2-.02-.5.039-.5-.359,0-.184-.264-.125-.4-.152a38.858,38.858,0,0,1-12.3-4.926,62.906,62.906,0,0,1-10.8-8.451c-2.58-2.455-5.032-5.034-7.409-7.683a.535.535,0,0,0-.766-.155,52.415,52.415,0,0,1-12.364,4.107c-.155.031-.32.011-.4.211-.174.461-.52.462-.919.326a13.054,13.054,0,0,1-4.144-2.4c-1.136-.946-2.213-1.962-3.36-2.894a26.864,26.864,0,0,0-7-3.867,29.257,29.257,0,0,1-12.388-9.531c-.276-.36-.439-.318-.764-.119q-23.659,14.54-48.471,27.022c-.939.473-1.889.927-2.819,1.418a1.619,1.619,0,0,1-1.406.039c-.148-.056-.327-.127-.325-.319,0-.166.168-.228.3-.293.708-.36,1.419-.716,2.129-1.072Q-928.618,131.4-904,116.228A2.125,2.125,0,0,1-903.022,115.836Zm108.043,16.686-1.637-.406-18.866-4.649a37.265,37.265,0,0,1-7.792-2.519c-2.375-1.179-4.57-2.573-5.575-5.215-.312-.82-.544-.932-1.5-.5a2.713,2.713,0,0,0-.377.221,14.626,14.626,0,0,1-4.86,2.029c-2.868.664-5.381.119-7.343-2.225-.677-.809-1.346-1.627-2.051-2.411a2.793,2.793,0,0,0-3.807-.612,6.012,6.012,0,0,0-1.8,1.106c-.123.15-.328.084-.508.056a6.637,6.637,0,0,1-3.249-1.761c-1.341-1.133-2.528-2.434-3.913-3.52a51.5,51.5,0,0,1-4.3-3.67,7.764,7.764,0,0,0-1.266-.987,2.072,2.072,0,0,0-1.189-.345c-.764.014-1.529-.005-2.292-.04-2.438-.111-2.463-.106-4.084,1.736-.054.061-.1.125-.158.186-.9,1-1.671,2.114-2.528,3.153a51.924,51.924,0,0,1-15.953,12.9,1.1,1.1,0,0,0-.5.342c.331.153.645.3.962.445a23.063,23.063,0,0,1,4.64,2.424c1.272.963,2.451,2.031,3.651,3.077a16.748,16.748,0,0,0,5.317,3.442.955.955,0,0,0,.561.068,50.223,50.223,0,0,0,11.8-4.123,1.536,1.536,0,0,1,1.82.151,3.819,3.819,0,0,1,.5.454c1.176,1.28,2.337,2.574,3.52,3.849a83.021,83.021,0,0,0,11.009,10.25,36.475,36.475,0,0,0,13.82,6.66,5.407,5.407,0,0,1,1.994.572.517.517,0,0,0,.688-.029c2.11-1.485,4.234-2.95,6.348-4.43a67.731,67.731,0,0,1,9.4-5.77,9.358,9.358,0,0,1,5.242-.952,10.02,10.02,0,0,0,1.754.025,3.444,3.444,0,0,0,2.924-1.737,6.964,6.964,0,0,0,.427-.816,7.4,7.4,0,0,1,2.691-3.132,18.017,18.017,0,0,1,2.214-1.315C-797.861,133.8-796.408,133.247-794.979,132.522Z" transform="translate(0 0)" fill="#ddd"/>
  </g>
</svg>
