<svg xmlns="http://www.w3.org/2000/svg" width="18.752" height="17.514" viewBox="0 0 18.752 17.514">
  <g id="Group_1753" data-name="Group 1753" transform="translate(-975.283 -210.283)">
    <path id="Path_2137" data-name="Path 2137" d="M982.451,227.014a2.692,2.692,0,1,1,2.693-2.693A2.695,2.695,0,0,1,982.451,227.014Zm0-3.674a.982.982,0,1,0,.982.981A.983.983,0,0,0,982.451,223.34Z" transform="translate(0.309 0.783)" fill="#0d0d0d"/>
    <path id="Path_2138" data-name="Path 2138" d="M989.293,227.014a2.692,2.692,0,1,1,2.693-2.693A2.694,2.694,0,0,1,989.293,227.014Zm0-3.674a.982.982,0,1,0,.982.981A.983.983,0,0,0,989.293,223.34Z" transform="translate(0.781 0.783)" fill="#0d0d0d"/>
    <path id="Path_2139" data-name="Path 2139" d="M976.226,212.17h.875a.842.842,0,0,1,.594.18.986.986,0,0,1,.349.515l.045.449,1.616,6.331H979.7l.463,1.861h9.579a2.692,2.692,0,0,0,1.717-.593,2.829,2.829,0,0,0,1-1.516L994,213.313a.919.919,0,0,0-.943-1.144H979.75a2.791,2.791,0,0,0-2.649-1.887h-.875a.943.943,0,0,0,0,1.887Zm15.646,1.863-1.235,4.893a.98.98,0,0,1-.349.517.937.937,0,0,1-.594.2h-8.059l-1.415-5.612Z" transform="translate(0 0)" fill="#0d0d0d"/>
  </g>
</svg>

